<svg xmlns="http://www.w3.org/2000/svg" width="1333.333" height="290.667" viewBox="0 0 1000 218" xmlns:v="https://vecta.io/nano"><g fill="#231f20"><path d="M119.4 4.57a106.05 106.05 0 0 1 58 13.98C199.7 31.4 217 52.73 224.7 77.3c7.54 23.7 6.3 50.1-3.53 72.96-9.94 23.27-28.66 42.6-51.57 53.34-20.7 9.73-44.6 12.56-66.94 7.5-32.27-6.8-60.43-30-73.47-60.26-14.2-31.72-10.87-70.38 8.5-99.22 17.78-27.48 49.08-45.3 81.7-47.07m-7.08 18.8c-27.07 3.8-51.74 21.34-64.16 45.7-10.85 20.74-12.7 45.94-5 68.04 8.53 25.15 29.27 45.75 54.5 54.06 21.62 7.37 46.17 5.57 66.43-4.98 27.6-13.8 46.78-43.17 47.54-74.1.83-19.93-5.68-40-17.9-55.75-18.64-24.52-50.9-37.8-81.4-32.93zm153.95 2.1l18.13.1-.08 90.36 18 .02-.03-11.12 17.88-.01-.01 19.63c-12.06-.15-24.14.4-36.17-.27-7.84-1.07-17.54-6.14-17.68-15.1l-.05-83.6zm198.34.1l53.88-.03-.08 8.7-18.07.05.02 89.9h-17.6l.01-89.92c-6.02-.01-12.04.01-18.05-.02l-.1-8.7zm83.73-.16c8.46-.24 17.6-1.28 25.34 2.95 5.14 2.6 9.96 7.45 9.5 13.64l-.02 67.05c.22 5.3-3.8 9.54-8.23 11.8-8.2 4.6-17.96 3.4-26.97 3.23-9.17-.68-19.62-7.86-18.7-18.03l.1-66.03c1.03-8.98 10.97-13.56 18.98-14.6m-1.03 8.9l-.04 81.06c5.9.14 11.8.1 17.7.06l-.01-81.13c-5.9-.01-11.78-.02-17.66.01zm153.72-8.87l53.7.02-.01 8.78h-18.04l-.03 89.9c-5.9.14-11.78.1-17.67.05l-.02-89.9c-6-.01-12.02 0-18.02-.02l.08-8.82zm93.83 0l53.7.02.05 8.7c-6 .2-12 .14-18 .06l-.06 89.9c-5.9.15-11.8.1-17.7.07l.04-89.9c-6.05-.02-12.1.01-18.14-.03l.1-8.8zm131.2.01c11.82.2 23.67-.38 35.47.3 7.6 1.24 17.23 5.58 18.04 14.26l.07 84.13c-5.97.14-11.94.1-17.9.07V34.28a3473.14 3473.14 0 0 0-17.68 0l-.01 89.9h-18l.02-98.75zm-593.7 13.68c2.82-11.2 16.56-14.4 26.65-13.72 10.12-.67 23.75 2.46 26.82 13.56.55 28.38.1 56.82.22 85.22H368.2V93.6h-17.63l.03 30.53c-6.14.14-12.3.1-18.43.07l.17-85.07m17.82-4.83l.01 50.44 17.67-.01.01-50.44a1491.87 1491.87 0 0 0-17.7.01zm49.07 6.63c.22-9.02 9.98-13.84 17.78-15.13 9.07-.5 18.92-1.52 27.2 3.03 4.5 2.4 8.87 6.62 8.8 12.1l.03 36.12c.26 7.54-6.74 12.73-13.12 15.08-7.32 2.52-15.2 1.08-22.77 1.5.18 10.2.07 20.4.08 30.6H399.2l.03-83.27m18-6.65v50.47l18 .01V34.3h-18zm178.9 4.66c2.8-10.8 16.02-14.12 25.86-13.56 10.26-.73 23.67 2.05 27.47 12.97.72 12.86.1 25.8.3 38.7.28 6.28-4.85 11.08-10.02 13.7-7.92 4.3-17.2 2.38-25.78 2.82l-.01 30.6a1542.87 1542.87 0 0 1-18-.01l.2-85.22m17.87-4.7v50.47H632V34.27a5376.03 5376.03 0 0 0-17.96 0zm245.02 6.66c.25-9.1 10.1-13.9 17.96-15.15 9.03-.5 18.84-1.5 27.08 3.08 4.5 2.38 8.88 6.62 8.75 12.1l.06 83.24h-17.83l.03-30.6c-5.87-.03-11.73 0-17.6-.06-.2 10.2-.02 20.42-.08 30.63l-18.4.03.02-83.27m18-6.65v50.46h17.68V34.3h-17.68zM80.88 60.96c17.22-15.64 42.88-21.8 64.95-13.68 9.15 3.07 17.4 8.4 24.55 14.8-2.46 2.3-4.85 4.7-7.13 7.17-19.9-19.86-54.95-20.28-75.36-.95-2.23-2.56-4.6-4.97-7-7.35z"/><path d="M765.96 45.6h18l-.01 78.6a1542.87 1542.87 0 0 1-18-.01l.01-78.6zM70.28 73.3l7.58 7.24c-12.67 20.53-9.7 49.1 7.24 66.36 13.18 14.34 34.34 20.38 53.17 15.62 18.43-4.34 33.87-19 39.4-37.08 4.8-15 2.57-31.9-5.64-45.28 2.44-2.28 4.84-4.6 7.2-6.95 10.68 16.17 13.46 37.2 7.5 55.62-5.15 16.18-16.97 30.07-32.1 37.8-26.63 14.25-62.5 6.5-80.86-17.47-17.34-21.1-18.6-53.2-3.5-75.85zm804.68 79.86l7.25-.03-.2 9.8c2.46-1.3 5.07-2.95 8-2.4 11.23 1.53 11.13 21.58-.03 23.2-3.08.7-5.75-1.17-8.12-2.82l-.53 2.46-6.9-.16c.32-2.1 2.18-2.65 3.94-3.15l-.02-24.1-3.4-.33.01-2.5m11.52 10.38c-6 2.8-6.12 14.18-.13 17.06 10.7 2.57 10.66-19.3.13-17.06zm62.44-10.36l7.1-.02.07 17.94 8.15-7.16-3.8-.75c1.9-3.88 7.22-1.5 10.67-2.08l-.25 2.04c-3.26 1.3-5.96 3.54-8.5 5.9 2.98 5.03 6.03 10.07 10.3 14.14-3.7.2-7.43.26-11.12-.07.9-1.24 2.07-2.25 3.33-3.13l-5.37-8.54c-3.15 1.9-4 5.23-3.57 8.7 1.73.42 3.33 1.13 3.66 3.1a156.58 156.58 0 0 1-11.26-.01c.4-2.04 2.2-2.65 3.93-3.2l-.03-24.07-3.35-.32.01-2.5zm-325.62 3.07l3.8-.76v5.3c2.23.35 5.33-.32 6 2.58l-6.02.48c.3 5.46-.7 11.07.6 16.43 1.7.5 3.48.73 5.24 1.05l-.3 2.38c-3-.2-7.12.73-8.93-2.36-.98-5.72-.17-11.6-.42-17.37l-4.4-.8c.92-1.6 2.63-2.18 4.3-2.7l.12-4.26zm38.38-.1l3.87-.67-.1 5.37 5.5.45-.1 2.3-5.36.2c.01 5.6-.23 11.25.38 16.85l5.2.25-.26 2.9c-3-.26-7.55.62-8.87-2.92-.8-5.6-.17-11.32-.3-16.97l-3.65-.37-.03-2.22 3.65-.52.04-4.65zm-326.42 4.97c2.6.16 6.15-1.13 7.6 1.83 3.45-3.28 8.97-3.14 11.9.75 2.85-4.04 10-4.5 12.12.45 1.03 5.38.3 10.92.44 16.36l3.64.3-.06 2.5c-3.66.03-7.32.04-10.98-.02l.2-2.54 3.4-.26c-.22-5.1.5-10.3-.5-15.33-1.6-3.18-6.38-1.4-7.3 1.5-1.35 4.3-.72 8.92-.6 13.35 1.28.85 2.43 1.87 3.36 3.1a75.65 75.65 0 0 1-10.96.05c.92-1.4 2.23-2.43 3.64-3.3-.01-4.87.43-9.8-.28-14.63-1.93-3.36-7-1.35-7.7 1.95-.97 4.23-.45 8.6-.54 12.92 1.76.5 3.6 1.04 3.94 3.14-3.7-.65-9.98 2.2-11.75-2.12l3.95-.72-.02-16.46-3.43-.48-.04-2.33zm49.77.07l6.84-.18.4 2.77c3.5-3.93 11-4.94 13.76.27 1.15 5.4.3 11 .5 16.46l3.34.22.3 2.6c-3.83.04-7.65.07-11.46-.1.33-2.13 2.23-2.6 4-3.04-.18-4.84.45-9.75-.4-14.54-1.66-3.67-7.54-2.6-8.9.83-1.73 4.37-.85 9.2-1.06 13.8 1.86.35 3.9.64 4.1 2.98a168.92 168.92 0 0 1-11.91 0c.22-2.23 2.18-2.64 4-3.04v-16.17l-3.48-.6-.02-2.26zm29.85 2.7c3.13-4.4 9.56-4.18 13.5-1 1.45-2.9 5-1.54 7.58-1.8l.04 2.37-3.57.52c-.3 7.94.7 16-.57 23.86-3.36 7.73-17.12 6.4-18.9-2l3.73.1c1.84 3.07 5.38 5.14 8.96 3.6 3.77-1.3 2.82-6 3.37-9.07-2.9 1.84-6.33 3.9-9.86 2.4-7.37-2.66-8.34-13.2-4.26-19m4.57.54c-5.06 4.02-3.9 15.73 3.57 15.95 9.7-1.2 6.5-21.52-3.57-15.95zm122.8-3.18c4.42-1.62 10.5-.8 12.92 3.7 2.25 4.37 2.13 9.92-.04 14.3-3.5 6.9-15.63 6.1-17.98-1.4-1.86-5.7-1.02-13.88 5.1-16.6m3.15 2.25c-7.16 1.98-7.27 15.13-.34 17.4 10.5 1.95 10.82-19.07.34-17.4zm55.3 3.55c-.28-6.36 8.26-8.35 12.46-4.58l3.6-1.92.17 7.98-2.63-.14c-1.04-4.35-7.77-7.57-9.94-2.38.57 4.36 6.58 3.87 9.58 6.04 4.45 1.67 4.57 8.33.65 10.64-3.13 2.14-7.04 1-10.2-.4l-3.7 1.28-.1-8.34c4.1-.02 4.3 5.92 8.42 5.82 2.7.6 6.15-2.56 4.05-5.13-3.52-3.7-11.74-2.6-12.36-8.87zm35.48.08c.9-7.67 12.97-9.1 16.33-2.7 1.36 5.18.55 10.64.63 15.94l4.1.95c-1.5 3.65-5.84 1.67-8.64 1-3.37 1.5-7.66 2.54-10.78-.06-3.62-2.56-3.04-8.5.6-10.75 3.46-2.03 7.67-1.64 11.53-2.05.84-6.72-7.83-8.1-10.18-2.36l-3.58.02m3.6 12.12c4.5 5.33 11.26-1.16 10.04-6.8-4.37-1.07-12.84.62-10.04 6.8zm33.1-18.14l7.4-.03-.03 19.17c1.82.38 3.8.76 4.04 3-3.93.14-7.87.15-11.8.04.15-2.32 2.13-2.7 4-3.05v-16.23l-3.5-.47-.1-2.44zm18.55.43c4.72-2.2 11.68-1.1 13.9 4.13 2.1 5.23 1.77 12.18-2.52 16.24-4.86 3.74-13.67 2.37-15.76-3.9-1.87-5.54-1.24-13.34 4.4-16.47m1.9 2.68c-4.8 3.63-4.7 12.68.17 16.24 5.43 2.68 10.05-3.33 9.22-8.43.87-5.13-4.2-11.06-9.4-7.8zm138.17 2.87c1.28-7.4 12.63-9.07 16.32-2.9 1.57 5.12.5 10.63.76 15.9 1.72.52 3.55 1.08 3.9 3.14l-6.74.22-1.2-2.04c-4.55 4.88-15 2.17-13.7-5.36 1.3-6.56 9.17-6.3 14.36-6.45 1.1-6.93-7.8-8.16-10.23-2.36l-3.48-.16m3.94 12.46c4.87 4.93 10.92-1.76 9.63-7.24-4.43-.93-13.02 1.1-9.63 7.24zm-384.54-10.08l16.95.04-.01 3.32-17.18.03.24-3.4zm299.27.03l16.9-.05.28 3.4c-5.74.04-11.48.06-17.2-.04l.04-3.32z"/></g><path d="M765.93 25.45l18.02.01c-.1 5.36-.1 10.72 0 16.07l-18.02.01v-16.1zm-491.6 138.02c1.73-2.08 3.85-3.78 5.8-5.64l26.3-.04c-5.44 8.54-15.9 4.98-24.34 5.7.13 4.63.13 9.26 0 13.9h15.22l-.04-4.35-5.4.07-5.82-5.27 19.4.05.08 9.35c-5.6 8.98-16.64 5.14-25.4 5.85-7.42-3.96-6.9-12.4-5.82-19.62z" fill="#ed1c24"/><path d="M87.9 68.3c20.4-19.33 55.45-18.9 75.36.95-2.63 2.72-5.33 5.36-8.06 7.97-5.67-5.57-12.88-9.2-20.5-11.25v72.1c-6.4.1-12.8.08-19.2.02V66c-7.32 2-14.26 5.32-20.18 10.1l-7.42-7.8zM77.86 80.55c2.78 2.52 5.47 5.13 8.17 7.73-6.64 12.76-6.78 28.76.3 41.38 9.17 17.77 31.58 26.95 50.67 21.18 15.87-4.35 28.52-18.47 30.96-34.78 1.7-9.48-.27-19.25-4.3-27.9l8.4-7.98c8.2 13.4 10.43 30.28 5.64 45.28-5.54 18.07-20.98 32.74-39.4 37.08-18.83 4.76-40-1.28-53.17-15.62-16.94-17.26-19.9-45.83-7.24-66.36zm404.06 77.23c2.82.26 6.04-.64 8.6.58 3.66 5.35 6.62 11.14 10 16.66l2.74-4.73-7.4-12.5c4.95-.62 10.02-.32 11.52 5.3 1.64-5.52 6.72-5.96 11.7-5.28l-7.43 12.5 2.84 4.76c3.58-5.65 6.45-11.8 10.46-17.14 2.7-.26 5.42-.13 8.14-.13l-14.93 25.38c-4.9.9-9.15-.4-10.8-5.42l-3.2 5.4-7.38-.01-14.9-25.35z" fill="#00aeef"/><path d="M575.78 153.15l7.23-.02.06 17.92 7.87-6.8c-1.56-.55-2.8-1.47-3.45-2.98 3.53-.27 7.08-.25 10.63-.2l-.23 2.03c-3.27 1.3-6 3.53-8.57 5.9 3 5.04 6.04 10.1 10.36 14.15-3.7.2-7.43.26-11.13-.01.85-1.32 2.05-2.32 3.35-3.2-1.85-2.8-3.63-5.66-5.4-8.5-3.17 1.87-4 5.2-3.57 8.68 1.72.44 3.3 1.17 3.62 3.13-3.75.12-7.5.12-11.25-.03.42-2.02 2.25-2.64 3.96-3.25l-.04-23.98-3.3-.34-.14-2.5zM375.9 154.6l4.2.02-.24 3-3.72.02-.23-3.05zm300.43 3.26l.23-3.38 4.15.25c.35 2.93-2.28 2.88-4.38 3.13zm-363.68 9.54c.92-7.67 12.45-9.46 16.34-3.36 1.62 5.2.46 10.8.9 16.18 1.8.35 3.46.98 3.75 3.03l-6.78.1-1.15-1.9c-4.33 4.42-14.02 2.6-13.78-4.46.32-7.2 8.98-7.46 14.37-7.4-.23-2.42-.38-5.87-3.52-6.15-4.26-1.1-5.8 4.84-10.14 3.95m3.9 12.07c4.83 5 11.2-1.66 9.6-7.25-4.4-.8-12.9 1.15-9.6 7.25zm242.76-18.34l7.03-.16.14 3.03c2.15-2.4 5.03-3.66 8.28-3.43l.1 3.5c-9.48-.84-8.1 10.05-7.8 16.33l4.2.88c-2.4 4.03-8.14 1.38-11.98 1.95.24-2.15 2.07-2.62 3.88-2.96.16-5.34.15-10.67.07-16-1.73-.54-3.86-.86-3.9-3.13zm150.1-.02c2.63.32 6.96-1.5 7.73 2.15 3.5-3.46 10.33-4.18 13.15.4 1.37 5.44.38 11.17.7 16.73l4.22.83c-2.33 4.1-8.14 1.4-11.97 1.97.27-2.1 2.05-2.62 3.83-3.02-.06-4.93.6-9.97-.45-14.82-2.05-3.4-7.58-2.2-8.9 1.25-1.56 4.27-.82 8.95-1 13.4 1.73.58 3.63 1.1 4.07 3.18-3.67.16-7.35.14-11.02.16l-.54-2.25 3.7-.73c-.12-5.5-.1-11-.01-16.5l-3.54-.4v-2.35zm148.97 1.23c3.08-2.86 7.7-2.04 10.82.3 1.22-.63 2.43-1.28 3.62-1.98l.08 8.2-2.7.01c-1.4-3.14-4.38-7.32-8.26-4.87-4.52 3.8-4.7 12.4-.34 16.4 3.77 2.35 7.4-.95 8.5-4.5l3.47.04c-.7 8.2-12.32 10.87-16.9 4.38-3.06-5.42-3-13.46 1.7-17.97zm48.93-.98c4.36-1.74 10.5-1.08 13.03 3.33 2.4 4.2 2.28 9.63.4 14-3.16 7.5-16 6.83-18.25-1.04-1.73-5.55-.96-13.44 4.83-16.3m3.12 2.2c-6.7 2.34-6.8 14.68-.28 17.27 10.84 2.4 11.1-19.54.28-17.27zm20.87-2.2c4.36-1.74 10.5-1.1 13.05 3.32 2.5 4.43 2.38 10.24.04 14.7-3.64 6.83-15.76 5.86-17.93-1.72-1.73-5.56-1-13.46 4.84-16.3m3.13 2.2c-6.75 2.3-6.84 14.72-.28 17.28 10.87 2.43 11.15-19.55.28-17.28z" fill="#231f20"/><path fill="#ec008c" d="M782.3 157.8l9.34.06 11.65 15.06 11.8-15.12 9.26.02v25.28l-8.2.02.08-16.32L805.9 180c-8.22 1.34-10.45-8.65-15.42-13.2-.13 5.28.25 10.57-.07 15.84-2.25 2.23-5.46 3.2-8.17 4.8l.05-29.65z"/><path fill="#221e1f" d="M372.36 161.13l7.52-.12.03 19.17c1.78.4 3.57.94 3.85 3.04-3.77.15-7.53.12-11.3.1v-2.57l3.57-.23-.03-16.68-3.7-.38.04-2.34z"/></svg>